<svg xmlns="http://www.w3.org/2000/svg" viewBox="0 0 100 96">
  <defs>
    <linearGradient id="heartGrad" x1="0" y1="0" x2="1" y2="1">
      <stop offset="0%" stop-color="#f0c78a" />
      <stop offset="55%" stop-color="#e8a35c" />
      <stop offset="100%" stop-color="#c9455f" />
    </linearGradient>
    <path id="textArc" d="M17 34 C30 20 70 20 83 34" />
  </defs>
  <path d="M50 90 C18 66 4 46 4 28 C4 12 17 2 32 2 C42 2 48 9 50 15 C52 9 58 2 68 2 C83 2 96 12 96 28 C96 46 82 66 50 90 Z" fill="url(#heartGrad)" />
  <path d="M50 90 C18 66 4 46 4 28 C4 12 17 2 32 2 C42 2 48 9 50 15 Z" fill="#000" opacity="0.08" />
  <path d="M50 8 L52 13 L57 14 L52 16 L50 21 L48 16 L43 14 L48 13 Z" fill="#fff3d1" opacity="0.85" />
  <text font-family="Georgia, 'Big Caslon', 'Cambria', serif" font-style="italic" font-size="13.5" font-weight="600" letter-spacing="0.5" fill="#3a2410" opacity="0.88">
    <textPath href="#textArc" startOffset="50%" text-anchor="middle">Pandulu</textPath>
  </text>
</svg>
